<svg xmlns="http://www.w3.org/2000/svg" viewBox="0 0 750 500"><path d="M174.35 379.84c4.38-2.26 9.53-2.56 14.39-1.75 2.62.43 5.34 1.21 7.12 3.17s2.11 5.42.07 7.1a6.76 6.76 0 0 1-4.48 1.14c-3.81 0-8-.71-11.07 1.58-1.74 1.3-2.89 3.48-5 4.12a4.89 4.89 0 0 1-5.39-2.4 8.33 8.33 0 0 1-.61-6.19 9.4 9.4 0 0 1 4.97-6.77Zm-10.04-19.37c2.68 3.82 7.88 2.55 10.3.22S178 355 179 351.74c2.12-7.37 4.26-15.1 2.68-22.61a12.53 12.53 0 0 0-2.89-6.15 6.56 6.56 0 0 0-6.22-2.07c-2.62.69-4.25 3.26-5.43 5.71a53.9 53.9 0 0 0-5.33 23.13c0 3.73.43 7.64 2.53 10.72m-7.34 5.67c2.9-3.46 3.46-8.49 2.16-12.81s-4.21-8-7.58-11a40.79 40.79 0 0 0-13.59-8 14.43 14.43 0 0 0-6.11-1 6.41 6.41 0 0 0-5.12 3.1c-1.43 2.73-.06 6 1.42 8.74a103.5 103.5 0 0 0 8.92 13.58c2.68 3.45 5.74 6.85 9.82 8.41s8.3 1.37 10.47-1.45" style="fill:#e79703"/><path d="M164.13 418.35a8.51 8.51 0 0 0 .24-1.74c.13-1.27.28-2.85.46-4.74a69.18 69.18 0 0 1 1.07-7 53.32 53.32 0 0 1 2.53-8.21 30.24 30.24 0 0 1 4.19-7.43 15.67 15.67 0 0 1 5.3-4.41 14.85 14.85 0 0 1 4.47-1.39 8 8 0 0 0 1.73-.25 8 8 0 0 0-1.76 0 13.65 13.65 0 0 0-4.66 1.21 15.7 15.7 0 0 0-5.59 4.45 29.85 29.85 0 0 0-4.35 7.58 50.35 50.35 0 0 0-2.51 8.34 60.92 60.92 0 0 0-.92 7.05c-.15 2-.21 3.64-.24 4.77a8.4 8.4 0 0 0 .04 1.77Z" style="fill:#263238"/><path d="M164.46 414.7a3.63 3.63 0 0 0 0-.81v-2.31c0-2 0-4.89.1-8.47.18-7.15.79-14.85 2-25.7 1.13-10.21 2.64-22.09 4.24-29.81.34-1.76.68-3.34 1-4.72s.57-2.58.83-3.55.39-1.65.54-2.24a4.2 4.2 0 0 0 .14-.8 3.34 3.34 0 0 0-.28.76c-.18.58-.4 1.31-.67 2.21s-.6 2.14-.95 3.53-.74 2.95-1.12 4.7a261.38 261.38 0 0 0-4.45 27.66c-1.19 10.88-1.73 20.78-1.78 28 0 3.59 0 6.49.13 8.49.06.94.1 1.7.14 2.31a3.07 3.07 0 0 0 .13.75Z" style="fill:#263238"/><path d="M164.5 395.6a14.37 14.37 0 0 0 0-2.41c-.09-1.55-.3-3.79-.74-6.53a86.88 86.88 0 0 0-2.12-9.51 78.53 78.53 0 0 0-4-11.25A60 60 0 0 0 146 347.71a29.34 29.34 0 0 0-2.74-2.55c-.43-.36-.8-.71-1.18-1l-1.06-.74a18.21 18.21 0 0 0-2-1.3c-.12.16 2.87 1.92 6.65 5.94A63.29 63.29 0 0 1 157 366.18a88.17 88.17 0 0 1 4 11.15c1 3.5 1.74 6.71 2.26 9.42s.79 4.93 1 6.46a17.27 17.27 0 0 0 .24 2.39Zm-18.46 33.69 1.92 26.22h33.68l1.92-26.22h-37.52zm-3.25-10.34h44.79v10.33h-44.79z" style="fill:#263238"/><path style="fill:#455a64" d="M142.79 454.51v2.86h44.05v-2.86h-44.05zm4.17 7.9-2.07-5.04h40.34l-2.41 5.04h-35.86z"/><path d="M182.93 437.86s-.05.09-.16.24l-.5.67-2 2.51-.09.11-.08-.12c-1.24-1.7-2.88-4-4.82-6.66h.27l-4.74 6.72-.15.21-.17-.2-5.63-6.7h.33c-.1.12-.21.25-.31.39l-5 6.31-.16.21-.16-.22c-1.71-2.42-3.3-4.68-4.75-6.72h.28l-5.85 6.67-.1.11-.08-.13-1.83-3.08c-.2-.33-.35-.6-.47-.81a1.08 1.08 0 0 1-.15-.3 1.72 1.72 0 0 1 .2.26l.52.79 1.92 3h-.18l5.75-6.75.15-.17.13.19 4.79 6.68h-.32l5-6.32c.1-.14.21-.27.31-.39l.16-.2.16.19 5.62 6.71h-.32l4.79-6.69.15-.2.13.2 4.72 6.74h-.17l2-2.44.55-.64c.18-.11.25-.18.26-.17Z" style="fill:#e0e0e0"/><path d="M184 429.12c0 .11-8.44.21-18.84.21s-18.86-.1-18.86-.21 8.44-.21 18.86-.21 18.84.09 18.84.21Z" style="fill:#455a64"/><path d="M185.73 457.65c0 .12-9.18.21-20.49.21s-20.49-.09-20.49-.21 9.17-.21 20.49-.21 20.49.1 20.49.21Zm505.61 4.82c0 .15-146.18.26-326.46.26s-326.49-.11-326.49-.26 146.15-.26 326.49-.26 326.46.12 326.46.26ZM398.88 200.73c-4.39-.44-8.1-3.48-10.87-6.92s-4.86-7.39-7.75-10.72c-2.16-2.48-2.5-7.52-5.69-8.33-4-1-5.94-6.72-5.68-10 .28-3.56 3.17-7.15 3.08-8.22-.24-2.8-3.45-4.81-3.5-7.62-.12-6.61 5-7.52 5-7.52 1.27-3.43 3-8 7.41-10.93 4.76-3.19 12.13-6.89 17.75-5.77s9.68 1.75 13 6.42" style="fill:#263238"/><path d="m446.45 198.46-4.39 22.66-9.86 20.41-13.15-9.11-4.34-12.29-3.64-10.3s-14.36 2.89-19.53-10.63c-2.5-6.52-6.54-20.38-10.06-33a27 27 0 0 1 16.64-32.56l1.31-.48c14.43-4.38 26.22 5.42 30.2 20l16.82 45.3" style="fill:#ffbe9d"/><path d="M389 174.94a2.08 2.08 0 0 0 2.6 1.27 2 2 0 0 0 1.35-2.49 2.06 2.06 0 0 0-2.59-1.26 2 2 0 0 0-1.36 2.48Zm-2.62-3.78c.33.16 1.4-1.47 3.49-2.23s4-.28 4.13-.62c.07-.16-.34-.52-1.19-.76a5.69 5.69 0 0 0-3.42.18 5.42 5.42 0 0 0-2.66 2.09c-.46.73-.51 1.27-.35 1.34Zm22.18-3.57a2.07 2.07 0 0 0 2.59 1.27 2 2 0 0 0 1.36-2.49 2.08 2.08 0 0 0-2.59-1.27 2 2 0 0 0-1.36 2.49Zm-1.56-4.68c.32.2 1.56-1.31 3.72-1.84s4 .15 4.17-.17c.09-.14-.28-.55-1.1-.88a5.66 5.66 0 0 0-3.42-.19 5.48 5.48 0 0 0-2.88 1.79c-.58.67-.69 1.2-.49 1.29Zm-1.37 19.98a14.67 14.67 0 0 0-3.62.64c-.55.14-1.1.22-1.32-.11a2.86 2.86 0 0 1-.23-1.71c0-1.47.06-3 .09-4.64.06-6.58-.11-11.91-.38-11.91s-.53 5.33-.58 11.91v4.64a3.33 3.33 0 0 0 .49 2.2 1.42 1.42 0 0 0 1.17.45 3.83 3.83 0 0 0 .95-.21 14.42 14.42 0 0 0 3.43-1.26Zm6.67-.82c-.35.11.48 2.37-.86 4.7s-3.85 3-3.75 3.28c0 .15.7.24 1.72-.1a6 6 0 0 0 3.18-2.62 5.2 5.2 0 0 0 .58-3.88c-.26-.98-.72-1.45-.87-1.38Zm-7.62-26.13c.37.53 2.43-.34 5-.73s4.82-.26 5-.88c.08-.29-.42-.74-1.4-1.08a8.82 8.82 0 0 0-7.65 1.23c-.78.63-1.12 1.21-.95 1.46Zm-19.3 9.53c.55.34 1.8-.68 3.52-1.34s3.31-.86 3.47-1.48c.05-.29-.35-.68-1.16-.89a5.45 5.45 0 0 0-5.62 2.27c-.43.71-.45 1.27-.21 1.44Zm24.89-34.97a11 11 0 0 1-8.64 14.5c-2.46.38-5.4.1-7 2s-.63 5.22-1.93 7.49c-1.86 3.25-6.85 2.56-9.89 4.74-2.34 1.69-3.1 4.76-4.1 7.46s-2.9 5.62-5.79 5.75a32.85 32.85 0 0 1-1.4-7.33 11 11 0 0 1 2-7.06c.83-1.08 1.94-1.95 2.66-3.11 1.56-2.51 1-5.73 1.48-8.65a12 12 0 0 1 6.64-8.74c2.87-1.34 6.24-1.52 8.89-3.26 1.95-1.29 3.34-3.34 5.36-4.51 3.95-2.28 8.94-.62 13.06 1.33" style="fill:#263238"/><path d="M398.83 141.24c1.71-1.2 5.16-3.78 5.6-5.78 1-4.34 4-8.14 8.06-9.31a10.13 10.13 0 0 1 11.25 4.55 14.57 14.57 0 0 1 14.47 3.48 16.86 16.86 0 0 1 4.75 15c-.27 1.39-.72 2.83-.27 4.2.56 1.69 2.27 2.59 3.64 3.67 3.72 3 5.36 8.23 4.95 13s-1.21 6.69-3.55 8.44c-4.6 3.42 5.27 11.53-3.31 14.53l-13.58-29.67a3.59 3.59 0 0 1-.7.58c-4.68 2.92-8.81-6.77-8.67-10a31.48 31.48 0 0 1-7-3.58c-2.13-1.58-5.33-6.8-5.92-9.45-1.77.72-10.46.87-9.72.34Z" style="fill:#263238"/><path d="M430.2 163.78c.19-.19 8.31-6.2 11.43 3.19s-6.95 10.6-7.05 10.33-4.38-13.52-4.38-13.52Z" style="fill:#ffbe9d"/><path d="M436.26 172.79s.2.06.52.09a1.66 1.66 0 0 0 1.23-.38c.88-.69 1.19-2.55.67-4.25a5.58 5.58 0 0 0-1.24-2.19 2 2 0 0 0-1.65-.85.87.87 0 0 0-.81.77c0 .3.08.47 0 .5s-.26-.09-.31-.5a1.11 1.11 0 0 1 .17-.71 1.33 1.33 0 0 1 .83-.54 2.42 2.42 0 0 1 2.19.89 5.83 5.83 0 0 1 1.44 2.43c.57 1.91.19 4-1 4.85a1.88 1.88 0 0 1-1.58.25c-.37-.15-.48-.33-.46-.36Zm-25.21 37.04a33.69 33.69 0 0 0 15.85-11.56s-.58 11.32-14.58 15.09Z" style="fill:#eb996e"/><path d="M408.68 141a56.5 56.5 0 0 0 15.09 1c8.35-.57 9.5-5.19 12.2-9.58a14.19 14.19 0 0 1 6.75 9.67s-4.72 13.43-21.25 11.82c0 0-12.05-3.34-12.79-12.91Z" style="fill:#e0e0e0"/><path d="M442.35 152.81c.25.22-.37 1.5-2.1 2.95a14.34 14.34 0 0 1-16.61 1c-1.89-1.23-2.65-2.43-2.43-2.68s1.39.35 3.27 1a17.39 17.39 0 0 0 14.75-.87c1.77-.89 2.84-1.67 3.12-1.4Z" style="fill:#e0e0e0"/><path d="M419.83 159.77c.14 0-.23 1.22-1.39 2.13a3.11 3.11 0 0 1-2.39.85c0-.15 1-.44 2.07-1.26s1.58-1.78 1.71-1.72Zm1.75 2.6a5.24 5.24 0 0 1-2.2.79 5.41 5.41 0 0 1-2.32.29 10.63 10.63 0 0 1 4.52-1.08Zm-19.49-3.94c0 .08-.32.22-.82.51s-1.18.74-2 1.21a6.3 6.3 0 0 1-2.22.87c-.62.09-1 0-1-.08s.37-.11.92-.28a9.45 9.45 0 0 0 2-1 13.71 13.71 0 0 1 2.08-1.09c.63-.18 1.02-.2 1.04-.14Zm3.01-5.59c0 .08-.62.27-1.49.87a20.2 20.2 0 0 0-3 2.8 11.46 11.46 0 0 1-3.35 2.61 2.94 2.94 0 0 1-1.73.37c0-.09.65-.19 1.56-.7a14.48 14.48 0 0 0 3.15-2.64 14.23 14.23 0 0 1 3.22-2.75 3 3 0 0 1 1.64-.56ZM388.58 175c.07.12-.63.58-1.63.62s-1.73-.35-1.68-.47.78 0 1.66-.05 1.59-.27 1.65-.1Zm-.64 1.09c.05.13-.4.44-.79 1s-.57 1-.72 1-.18-.69.31-1.33 1.16-.76 1.2-.67Zm27.42 6.07c-.13.06-.53-.6-1.36-.95s-1.58-.2-1.63-.34.15-.21.49-.28a2.17 2.17 0 0 1 1.34.14 2.25 2.25 0 0 1 1 .88c.21.3.22.53.16.55Zm1.93.22c-.15.05-.49-.69-1.21-1.32s-1.49-.92-1.45-1.06 1-.09 1.79.67 1 1.69.87 1.71Zm-.64-15.14a4.15 4.15 0 0 1-1.64 2.49 4 4 0 0 1-2.73 1.2c0-.14 1.2-.57 2.39-1.6s1.84-2.16 1.98-2.09Z" style="fill:#eb996e"/><path d="m398.92 408.73 1.36 34.42s-34.54 12.94-34.9 19.32l66.83-.22.09-53.72Z" style="fill:#455a64"/><path d="M420.93 440.19a2.71 2.71 0 0 1 1.9 3.1 2.62 2.62 0 0 1-3.06 1.91 2.88 2.88 0 0 1-2-3.3c.44-1.27 2.23-2.26 3.41-1.63" style="fill:#e0e0e0"/><g style="opacity:.6000000000000001"><path d="m432.21 462.25-.2-5.42-64 2.24s-3 1.31-2.62 3.4Z" style="fill:#fff"/></g><path d="M399.19 442.81c0 .33 1.65.47 3.26 1.52s2.46 2.41 2.76 2.28-.19-2-2.16-3.24-3.93-.85-3.86-.56Zm-7 2.93c-.07.31 1.34.86 2.46 2.24s1.44 2.84 1.76 2.82.53-1.86-.89-3.55-3.32-1.82-3.33-1.51Zm-3.95 8.4c.3.07.74-1.56-.1-3.35s-2.37-2.49-2.51-2.22.81 1.23 1.48 2.71.8 2.83 1.13 2.86Zm11.51-19.2c.14.29 1.64-.16 3.48 0s3.29.69 3.46.41-1.22-1.44-3.4-1.55-3.7.88-3.54 1.14Z" style="fill:#263238"/><path d="m579.55 453.74 34.07-5.1s16.62 32.92 23 32.59l-7.52-66.41-53.4 5.77Z" style="fill:#455a64"/><path d="M608.42 428.43a2.72 2.72 0 0 1 2.88-2.22 2.63 2.63 0 0 1 2.23 2.84 2.88 2.88 0 0 1-3.06 2.34c-1.31-.3-2.49-2-2-3.21" style="fill:#e0e0e0"/><g style="opacity:.6000000000000001"><path d="m629.12 414.82-5.37.79L633 479s1.62 2.81 3.67 2.24Z" style="fill:#fff"/></g><path d="M613.4 449.76c.32-.05.29-1.69 1.15-3.4s2.13-2.72 2-3-2 .41-3 2.5-.44 4-.15 3.9Zm3.67 6.64c.32 0 .72-1.43 2-2.69s2.66-1.74 2.61-2.06-1.9-.32-3.42 1.27-1.5 3.5-1.19 3.48Zm8.78 3.01c0-.3-1.63-.57-3.31.46s-2.22 2.63-1.93 2.74 1.13-.94 2.52-1.77 2.73-1.1 2.72-1.43Zm-20.34-9.35c.28-.17-.34-1.61-.42-3.46s.33-3.34 0-3.47-1.3 1.36-1.17 3.54 1.35 3.58 1.59 3.39Z" style="fill:#263238"/><path style="fill:#ffbe9d" d="m363.84 268.25 47.96 11.54-14.69 29.71-42.75-24.23 9.48-17.02z"/><path d="m347.64 260.94-8.2-1.57-11.25 5.3-4.77 10.6a3.74 3.74 0 0 0 .72 4.13c2 2.12 5.35 5.33 7.07 5.6 0 0 .25 3.72 3.75 3.9 0 0-1 1.72 3.05 2.37s16.84-1.72 16.84-1.72.75-2.23-2.74-5l4.17-3.36s-.25-2.66-4.15-3.33l4.18-6.86Z" style="fill:#e79703"/><path style="fill:#e79703" d="m351.41 285.43 14.05 8.53 11.46-23.13-17.62-6.44-10.61 20.55 2.72.49z"/><path style="fill:#e0e0e0" d="m329.54 266.16-.93 2.49-29.29-11.03-3.63-.94-1.64-1.4 1.18-2.24 1.94.24 3.16 2.02 29.21 10.86z"/><path d="M352.11 284.59a10.53 10.53 0 0 1-2.42 1.11 52.35 52.35 0 0 1-6.14 1.94 53.4 53.4 0 0 1-6.33 1.18 12.31 12.31 0 0 1-2.66.16 16 16 0 0 1 2.61-.53c1.61-.28 3.83-.71 6.25-1.32s4.58-1.27 6.14-1.77a16.55 16.55 0 0 1 2.55-.77Z" style="fill:#263238"/><path d="M332.11 284.55a83.88 83.88 0 0 0 16.95-4 8 8 0 0 0 2-.93 3.08 3.08 0 0 0 1.29-1.84" style="fill:#e79703"/><path d="M352.38 277.79a1.53 1.53 0 0 1-.23.86 3.79 3.79 0 0 1-1.78 1.6 57.76 57.76 0 0 1-7.37 2.45 70.93 70.93 0 0 1-7.63 1.57 17.37 17.37 0 0 1-3.22.28 24.71 24.71 0 0 1 3.16-.65c2-.37 4.63-.93 7.55-1.71s5.57-1.58 7.39-2.27a4 4 0 0 0 1.77-1.38c.25-.45.31-.76.36-.75Z" style="fill:#263238"/><path d="m353.83 280.73-25.92-9.64 2.69-7.24 25.92 9.64a3.86 3.86 0 0 1 2.27 5 3.85 3.85 0 0 1-4.96 2.24Z" style="fill:#455a64"/><path d="M329.06 276.17a108.91 108.91 0 0 1 19.72-2.17 4.07 4.07 0 0 1 2.29.41 2.8 2.8 0 0 1 1.16 2.15A3.69 3.69 0 0 1 350 280h-.06" style="fill:#e79703"/><path d="M349.92 280.06s.35-.21.9-.69a3.37 3.37 0 0 0 1.24-2.61 2.92 2.92 0 0 0-.73-1.84 2.74 2.74 0 0 0-2.12-.68c-1.73 0-3.66.11-5.66.25-4 .27-7.64.71-10.25 1.1l-3.09.46a4.69 4.69 0 0 1-1.15.12 5.89 5.89 0 0 1 1.11-.32c.72-.17 1.77-.39 3.07-.63a95.18 95.18 0 0 1 10.27-1.22c2-.14 3.94-.2 5.7-.2a3.15 3.15 0 0 1 2.44.86 3.28 3.28 0 0 1 .78 2.12 3.12 3.12 0 0 1-.54 1.77 3.89 3.89 0 0 1-.95 1c-.6.45-1.02.55-1.02.51Z" style="fill:#263238"/><path d="M364.53 268.86s-8.25-7.33-11.52-9.14a11.34 11.34 0 0 0-8.05-1.45c-1.83.45-15.43 10.28-15.43 10.28s1.33 3.19 5.84 2.73a11.54 11.54 0 0 0 7-3.17s.85 4.47 6.43 5.9c6.41 1.65 15.73-5.15 15.73-5.15Z" style="fill:#e79703"/><path d="M342.24 259.91a5.74 5.74 0 0 1-.92.73l-2.65 1.92-9.28 6.5.05-.35a6.49 6.49 0 0 0 2.69 1.94 7.2 7.2 0 0 0 3.53.33 13.93 13.93 0 0 0 6.53-3.05l.28-.23.11.34a9 9 0 0 0 8.22 6.16 9.64 9.64 0 0 0 3.14-.41 10.62 10.62 0 0 1 1.1-.36 1.34 1.34 0 0 1-.26.16 6 6 0 0 1-.79.35 8.93 8.93 0 0 1-3.2.56 9 9 0 0 1-4.76-1.38 9.47 9.47 0 0 1-3.92-4.93l.39.11a14 14 0 0 1-6.77 3.19 7.54 7.54 0 0 1-3.78-.36 6.79 6.79 0 0 1-2.9-2.11l-.17-.21.23-.15c3.75-2.55 7-4.74 9.39-6.36l2.73-1.8a5.59 5.59 0 0 1 1.01-.59Z" style="fill:#263238"/><path d="M354.3 289.86a2.3 2.3 0 0 0-.09-3.08 6.8 6.8 0 0 0-2.91-1.69 4.11 4.11 0 0 0 1.84-1.16 2.35 2.35 0 0 0 .67-1.36 2.23 2.23 0 0 0-1.28-2 5.38 5.38 0 0 0-2.2-.34" style="fill:#e79703"/><path d="M350.33 280.23a1.92 1.92 0 0 1 .6-.06 3.19 3.19 0 0 1 1.67.23 2.43 2.43 0 0 1 1.45 2.09 2.38 2.38 0 0 1-.58 1.45 4.37 4.37 0 0 1-1.25 1 3.8 3.8 0 0 1-.84.36v-.49a8.49 8.49 0 0 1 2.44 1.24A3 3 0 0 1 355 288a2.1 2.1 0 0 1-.28 1.47c-.2.3-.38.39-.4.37a2.31 2.31 0 0 0 .34-1.78 2.72 2.72 0 0 0-1.1-1.62 8.71 8.71 0 0 0-2.33-1.12l-.72-.26.73-.23a4.35 4.35 0 0 0 .74-.32 2.87 2.87 0 0 0 1.61-2 2.11 2.11 0 0 0-1.14-1.75 3.57 3.57 0 0 0-1.51-.36c-.41-.07-.62-.13-.61-.17Z" style="fill:#263238"/><path style="fill:#e0e0e0" d="m369.87 268.25-11.17 21.61 4.11 2.49 10.5-22.84-3.44-1.26zm50.66-58.12s4.49-14 12.9-15.12 18.39-.76 25.21 1.73c12.3 4.5 63.73 58.88 63.73 58.88S538 276.75 532.82 285l-43.29 16.39H453s-26.54-34.77-26-35.64-6.47-55.62-6.47-55.62Z"/><path d="M474.61 352.34s1.27 87.14 4.23 94.33 6.77 12.69 19.46 15.23 107.87-4.23 107.87-4.23L601.52 415l-67.82-6.22s-.29-19.16.13-28.05 10.35-25.52 11.61-45.38-70.83 16.99-70.83 16.99Z" style="fill:#e79703"/><path d="M535.36 408c0 .08-1.23.64-3.15 1.72a43.63 43.63 0 0 0-7 5 43.09 43.09 0 0 0-5.88 6.31c-1.33 1.76-2 2.93-2.13 2.89a3.54 3.54 0 0 1 .42-.88 26 26 0 0 1 1.42-2.23 35.85 35.85 0 0 1 5.82-6.48 36.26 36.26 0 0 1 7.21-4.9 25.7 25.7 0 0 1 2.4-1.1 3.93 3.93 0 0 1 .89-.33Zm-11.89 25.26a4.62 4.62 0 0 1 .15-1.07c.12-.67.34-1.65.66-2.84a59.41 59.41 0 0 1 3.26-9.07 58.81 58.81 0 0 1 4.71-8.41c.69-1 1.28-1.82 1.71-2.36a4.39 4.39 0 0 1 .71-.81c.06.05-.82 1.29-2.12 3.38a73.64 73.64 0 0 0-4.55 8.42 75.5 75.5 0 0 0-3.39 8.95c-.69 2.35-1.06 3.83-1.14 3.81Z" style="fill:#263238"/><path d="m475.05 370.84-.05.36a38.75 38.75 0 0 0 25.59 8 43.79 43.79 0 0 0 26.12-11.56c-16.2 4.61-34.86 4.42-51.66 3.2Z" style="opacity:.30000000000000004"/><path style="fill:#e0e0e0" d="m577 412.7 2.51 46.73 14.76-.95-2.8-44.45L577 412.7z"/><path d="m437.22 273.41 53.45 25.66 43.2-19.94s8.08 9.55 9.66 13.52 2.11 17.52 2.11 17.52l-55.58 7.22h-47.95l-8.68-14.73Z" style="fill:#e79703"/><path d="M545.05 301.41c-5.08-5.92-73.82 6.51-73.82 6.51s-68.11 3-78.26 4.66-19.66 19.34-19.66 29.91 9.1 90.77 9.1 90.77L440 427.4c-.42-7.61-6.39-62.37-6.39-62.37s52.87 9.31 66.41 7.61 36-16.92 41-24.11 9.1-41.2 4.03-47.12Z" style="fill:#e79703"/><path d="M437.46 309.5s83.64-10.83 109.83 9c0 0 4.89-11.29-2.24-17.06s-110.54 3.1-110.54 3.1Z" style="fill:#455a64"/><path d="M412.69 345.49a5.67 5.67 0 0 1 1.2.21 10.76 10.76 0 0 1 1.38.37 18.29 18.29 0 0 1 1.8.61 28 28 0 0 1 4.42 2.18 29.23 29.23 0 0 1 8.78 8.23 27.19 27.19 0 0 1 2.45 4.28c.32.63.52 1.23.73 1.75a11.16 11.16 0 0 1 .45 1.35 4.71 4.71 0 0 1 .28 1.19c-.1 0-.56-1.64-1.79-4.13a30.18 30.18 0 0 0-2.52-4.16 32.9 32.9 0 0 0-3.92-4.48 33.56 33.56 0 0 0-4.71-3.62 31.22 31.22 0 0 0-4.31-2.25c-2.56-1.02-4.26-1.43-4.24-1.53Z" style="fill:#263238"/><path d="M413.79 354.38a3.39 3.39 0 0 1 .88.11 23.88 23.88 0 0 1 2.33.51 39.46 39.46 0 0 1 7.38 2.95 38.35 38.35 0 0 1 6.63 4.38c.78.65 1.39 1.2 1.79 1.61s.62.63.59.66-1-.76-2.61-2a49 49 0 0 0-6.64-4.21 48.3 48.3 0 0 0-7.25-3.05c-1.89-.57-3.12-.88-3.1-.96Zm114.08 13.38-.24.07-.7.16-2.71.57c-1.18.25-2.62.54-4.31.8s-3.6.62-5.74.86l-3.35.41c-1.16.14-2.38.22-3.64.34-2.52.27-5.22.38-8.06.54-5.68.22-11.94.23-18.5-.08a289.24 289.24 0 0 1-33.38-3.78c-4.24-.72-7.66-1.35-10-1.83l-2.71-.56-.71-.16c-.16 0-.24-.06-.23-.07h.24l.71.11 2.73.46c2.37.42 5.8 1 10 1.67a316.4 316.4 0 0 0 33.34 3.62c6.55.31 12.79.31 18.46.12 2.83-.14 5.53-.24 8-.49 1.26-.11 2.47-.18 3.64-.31l3.35-.38c2.13-.21 4-.54 5.74-.78s3.13-.49 4.31-.71l2.73-.47.71-.11Zm-67.71-14.32a4.11 4.11 0 0 1-.67.25l-1.95.61-7.17 2.14-.19.06-.06-.2c-1.36-5-2.66-11.76-4-19.15-1-5.62-2.09-10.86-3.19-15.2l-.07-.27h.27a50.16 50.16 0 0 1 10.34.76c1.23.22 2.18.44 2.83.6a5.33 5.33 0 0 1 1 .3 7.54 7.54 0 0 1-1-.16c-.65-.13-1.61-.31-2.84-.49a56.21 56.21 0 0 0-10.28-.57l.21-.28c1.15 4.35 2.22 9.59 3.27 15.21 1.37 7.4 2.62 14.16 3.9 19.15l-.24-.14 7.22-2 2-.51a3.32 3.32 0 0 1 .62-.11Z" style="fill:#263238"/><path d="M461.69 352.71a4.65 4.65 0 0 1-.1-1.15c0-.85-.07-1.89-.12-3.13a96.72 96.72 0 0 0-3.11-20.38l-.81-3a5.06 5.06 0 0 1-.26-1.13 4.28 4.28 0 0 1 .45 1.07c.26.69.6 1.72 1 3a77.14 77.14 0 0 1 3.12 20.47v3.14a5.55 5.55 0 0 1-.17 1.11Z" style="fill:#263238"/><path d="M450.46 356.39c-2.32-10.18-3.89-19.56-6.21-29.74l-.12-.11c1.28 11.67 2.33 23.34 3.62 35a34.84 34.84 0 0 0 11.73-8Z" style="opacity:.30000000000000004"/><path d="M423.87 370.72a3 3 0 0 1 .16.7c.08.52.19 1.19.32 2 .26 1.82.63 4.33 1.08 7.4v.2h-.2c-5.14.62-12 .93-19.53 1.22-5.71.23-11 .5-15.5 1h-.27v-.27a49.76 49.76 0 0 1 2.25-10.12c.39-1.19.75-2.1 1-2.72a5.81 5.81 0 0 1 .43-.92 6.61 6.61 0 0 1-.31 1c-.21.63-.53 1.56-.89 2.75a56.26 56.26 0 0 0-1.99 10.04l-.24-.24c4.46-.51 9.8-.81 15.52-1 7.52-.29 14.38-.55 19.51-1.09l-.17.22c-.38-3.08-.69-5.6-.91-7.43-.09-.83-.16-1.5-.22-2a5.35 5.35 0 0 1-.04-.74Z" style="fill:#263238"/><path d="M423.38 369.1a4.34 4.34 0 0 1-1.15-.08l-3.12-.33a97.8 97.8 0 0 0-20.62.13l-3.11.37a5.49 5.49 0 0 1-1.15.09 4.35 4.35 0 0 1 1.11-.29c.73-.16 1.79-.35 3.1-.54a78.39 78.39 0 0 1 10.35-.76 76.13 76.13 0 0 1 10.36.64c1.32.17 2.38.35 3.11.49a5.66 5.66 0 0 1 1.12.28Z" style="fill:#263238"/><path d="M425.39 380.74c-10.4.82-24.78 1.46-35.19 2.28l4 2.66c11.73.42 34.28-1.38 34.28-1.38l-4.6-12.89q.78 4.66 1.51 9.33Z" style="opacity:.30000000000000004"/><path d="M506.25 272.35a7.33 7.33 0 0 1-.78 1c-.53.66-1.32 1.59-2.32 2.72-2 2.25-4.86 5.28-8.24 8.4s-6.63 5.73-9 7.54c-1.21.9-2.2 1.62-2.9 2.09a6.21 6.21 0 0 1-1.11.69 7.17 7.17 0 0 1 1-.86l2.79-2.21c2.35-1.88 5.54-4.53 8.91-7.64s6.27-6.07 8.33-8.26l2.43-2.6a5.56 5.56 0 0 1 .89-.87Zm-23.97-.74a17.28 17.28 0 0 1-.46 3.09 98.886 98.886 0 0 1-4.03 14.48 17.63 17.63 0 0 1-1.2 2.88 19.46 19.46 0 0 1 .85-3c.57-1.84 1.35-4.37 2.14-7.19s1.42-5.4 1.88-7.26a21.72 21.72 0 0 1 .82-3Z" style="fill:#263238"/><path d="m504.41 305.59-1.66 44.71a13.7 13.7 0 0 0 13.14 14.19l20.05.8a13.68 13.68 0 0 0 14.2-12.63c1.1-14.32 2.08-36.59-1.22-47.07Z" style="fill:#455a64"/><path d="M549.35 309.43a10 10 0 0 1-1.7.29c-1.09.16-2.68.34-4.65.51a124.16 124.16 0 0 1-30.81-1.23c-2-.33-3.52-.64-4.6-.89a10.73 10.73 0 0 1-1.66-.43 10.32 10.32 0 0 1 1.7.23c1.09.19 2.67.44 4.62.73a151.43 151.43 0 0 0 15.33 1.36 149.55 149.55 0 0 0 15.39-.17c2-.12 3.56-.24 4.66-.34a12.17 12.17 0 0 1 1.72-.06Zm.19 17.68a8 8 0 0 1-1.51.65c-.49.2-1.1.43-1.82.65s-1.53.52-2.45.75a55.88 55.88 0 0 1-6.52 1.41 61.34 61.34 0 0 1-8.15.67 63 63 0 0 1-8.16-.49 56.76 56.76 0 0 1-6.55-1.26c-.92-.21-1.74-.48-2.46-.7s-1.34-.42-1.84-.61a11 11 0 0 1-1.53-.61 9.21 9.21 0 0 1 1.59.42c.51.16 1.13.34 1.86.52s1.54.43 2.47.62a63.94 63.94 0 0 0 6.52 1.15 62 62 0 0 0 16.18-.18 62.48 62.48 0 0 0 6.49-1.29c.93-.21 1.74-.47 2.46-.67s1.34-.4 1.84-.57a12.28 12.28 0 0 1 1.58-.46Zm-75.1-31.54a7.25 7.25 0 0 1-1.11.71c-.73.44-1.81 1-3.18 1.66a55.76 55.76 0 0 1-11.15 3.88 56.34 56.34 0 0 1-11.74 1.43c-1.52 0-2.75 0-3.59-.09a6.25 6.25 0 0 1-1.31-.16 7.3 7.3 0 0 1 1.32-.05c.84 0 2.06 0 3.57-.07a64.55 64.55 0 0 0 11.63-1.56 65.86 65.86 0 0 0 11.12-3.71c1.38-.61 2.48-1.13 3.23-1.51a6.49 6.49 0 0 1 1.21-.53Z" style="fill:#263238"/><path d="M381.76 427.4c-.06-.53-1.57-14.19-1.57-14.19l57.95-5.21 1.31 13Zm148.95-89.1-6.23 9.54h4.05l-2.74 8.35 7.83-10.83h-4.18l1.27-7.06z" style="fill:#e0e0e0"/><path d="M414.47 245.69s-11.64 19.54-11.66 31.81l-55.13 26.85 5.87 16.12s65.48-7.8 69.93-10.18 16.12-12 19.41-19.43 8.52-29.81 8.52-29.81Z" style="fill:#ffbe9d"/><path d="M417.31 279.93c-.05.07-.75-.43-2-1a17.51 17.51 0 0 0-5.08-1.59 17.23 17.23 0 0 0-5.32 0c-1.35.23-2.17.5-2.19.42a6.08 6.08 0 0 1 2.12-.78 14.94 14.94 0 0 1 5.47-.2 14.67 14.67 0 0 1 5.17 1.79 5.91 5.91 0 0 1 1.83 1.36Z" style="fill:#eb996e"/><path style="fill:#455a64" d="m306.51 297.76-14.12 15.65 42.91 9.1-.74-19.33-28.05-5.42z"/><path d="M348.64 303.18s-8.24-2-12.21-1.62-21.94 4.36-21.94 4.36-1.38 3.24 3.11 4.62 10.54 0 10.54 0-11.06 8.81-11.23 9.5-1.55 2.25.17 3.46 6.91 0 6.91 0 0 3.8 1.56 4.83 2.93 1.9 2.93 1.9 2.77 2.94 4.49 3.46 5.19 1.21 5.19 1.21h5.18l14-11.83 12.06-2.6-7.68-23.35Z" style="fill:#e79703"/><path d="M332.45 320.92a12.24 12.24 0 0 1-4 1.82 12.6 12.6 0 0 1-4.35.84 35.31 35.31 0 0 1 4.19-1.33 38.34 38.34 0 0 1 4.16-1.33Zm24.28-9.99a48.26 48.26 0 0 1 .2 6.33 50.51 50.51 0 0 1-.09 6.33 53.62 53.62 0 0 1-.11-12.66Z" style="fill:#263238"/><path style="fill:#e0e0e0" d="m354.85 300.3 7.39 21.71 5.03-1.09-8.57-22.41-3.85 1.79zM440.22 199s-16.73 4.38-20 11.79-13.58 43.7-13.58 43.7l44.79 15.81s5.76-25.78 8.23-35.65 10.19-28.8-19.44-35.65Z"/><path d="M406.62 254.49a.88.88 0 0 1 .25 0l.7.22 2.67.88 9.81 3.32 32.41 11.17-.34.2c0-.26.09-.55.14-.84 2.2-13.41 4.19-25.55 5.65-34.39.74-4.36 1.34-7.91 1.77-10.41.21-1.19.38-2.14.51-2.83l.14-.73a1.23 1.23 0 0 1 .07-.25 1 1 0 0 1 0 .26c0 .2-.05.44-.09.74-.1.69-.24 1.64-.41 2.84-.39 2.51-.94 6.07-1.61 10.44-1.41 8.85-3.36 21-5.5 34.42 0 .28-.09.57-.14.83l-.05.31-.29-.1-32.38-11.27-9.76-3.47-2.64-1-.68-.27Z" style="fill:#263238"/><path d="M463 226.16a3.61 3.61 0 0 1-.05.9c-.06.57-.19 1.39-.37 2.41a57.83 57.83 0 0 1-5.12 15.19c-.46.92-.86 1.65-1.16 2.14s-.47.76-.5.74a30 30 0 0 1 1.33-3c.84-1.86 1.93-4.47 2.92-7.43s1.71-5.69 2.17-7.68a29.05 29.05 0 0 1 .78-3.27Z" style="fill:#263238"/><path d="M409.44 255.54a1.66 1.66 0 0 1-.16.41l-.54 1.16c-.47 1-1.16 2.48-1.93 4.37a52.07 52.07 0 0 0-3.75 16v.14l-.13.06-10.12 4.89c-8.53 4.18-16.23 8-21.84 10.66-2.8 1.35-5.09 2.41-6.67 3.13l-1.83.82a3.13 3.13 0 0 1-.65.25 2.85 2.85 0 0 1 .61-.35l1.79-.9 6.59-3.28 21.77-10.79c3.56-1.74 7-3.39 10.14-4.87l-.14.2a50.14 50.14 0 0 1 4-16.12c.81-1.88 1.55-3.34 2.06-4.33l.61-1.12a2 2 0 0 1 .19-.33Z" style="fill:#eb996e"/><path style="fill:#e79703" d="m435.17 232.59-6.23 9.53h4.05l-2.74 8.35 7.83-10.83h-4.18l1.27-7.05zm2.67 23.58a74.73 74.73 0 0 1-8.3-2.6 72.5 72.5 0 0 1-8.12-3.1 75 75 0 0 1 8.29 2.6 72.23 72.23 0 0 1 8.13 3.1Z"/><path style="fill:#455a64" d="M225.16 257.28h31.38v31.38h-31.38z"/><path d="M251.55 273a23 23 0 0 0-.42-2.54 10.48 10.48 0 0 0-3.82-5.64 10.22 10.22 0 0 0-9.71-1.43 10 10 0 0 0-4.74 3.57 10.15 10.15 0 0 0 0 12.07 9.67 9.67 0 0 0 2.15 2.18 9.57 9.57 0 0 0 2.59 1.39 10.22 10.22 0 0 0 9.71-1.43 10.46 10.46 0 0 0 3.82-5.64 23.52 23.52 0 0 0 .42-2.53 8.13 8.13 0 0 1-.23 2.58 10.56 10.56 0 0 1-8.27 7.91 10.62 10.62 0 0 1-5.62-.44 10 10 0 0 1-2.71-1.44 10.27 10.27 0 0 1-2.28-2.28 10.66 10.66 0 0 1 0-12.68 10.44 10.44 0 0 1 2.28-2.27 10 10 0 0 1 2.71-1.44 10.62 10.62 0 0 1 5.62-.44 10.56 10.56 0 0 1 8.27 7.91 8.19 8.19 0 0 1 .23 2.59Z" style="fill:#263238"/><path d="M238.76 272.73a1.7 1.7 0 1 1-1.69-1.7 1.69 1.69 0 0 1 1.69 1.7Zm8.24 0a1.7 1.7 0 1 1-1.69-1.7 1.69 1.69 0 0 1 1.69 1.7Z" style="fill:#263238"/><path d="M230.61 285.63a1.48 1.48 0 1 1-1.47-1.47 1.47 1.47 0 0 1 1.47 1.47Z" style="fill:#e0e0e0"/><path d="M229.78 284.89c.05.14-.26.38-.55.74s-.48.7-.63.67-.16-.54.23-1 .91-.54.95-.41Z" style="fill:#263238"/><path d="M229.79 286.06c-.14.05-.38-.26-.76-.52s-.74-.39-.74-.54.53-.25 1.05.12.59.88.45.94Z" style="fill:#263238"/><path d="M255.07 285.63a1.48 1.48 0 1 1-1.48-1.47 1.48 1.48 0 0 1 1.48 1.47Z" style="fill:#e0e0e0"/><path d="M254.24 284.89c0 .14-.26.38-.55.74s-.48.7-.63.67-.16-.54.23-1 .91-.54.95-.41Z" style="fill:#263238"/><path d="M254.25 286.06c-.14.05-.38-.26-.76-.52s-.74-.39-.74-.54.53-.25 1 .12.64.88.5.94Z" style="fill:#263238"/><path d="M255.07 260.23a1.48 1.48 0 1 1-1.48-1.48 1.48 1.48 0 0 1 1.48 1.48Z" style="fill:#e0e0e0"/><path d="M254.24 259.49c0 .13-.26.38-.55.73s-.48.7-.63.67-.16-.54.23-1 .91-.54.95-.4Z" style="fill:#263238"/><path d="M254.25 260.66c-.14 0-.38-.27-.76-.52s-.74-.4-.74-.54.53-.25 1 .11.64.91.5.95Z" style="fill:#263238"/><path d="M230.6 260.23a1.48 1.48 0 1 1-1.47-1.48 1.47 1.47 0 0 1 1.47 1.48Z" style="fill:#e0e0e0"/><path d="M229.77 259.49c0 .13-.26.38-.55.73s-.48.7-.63.67-.16-.54.23-1 .91-.54.95-.4Z" style="fill:#263238"/><path d="M229.78 260.66c-.14 0-.38-.27-.75-.52s-.75-.4-.75-.54.53-.25 1.05.11.59.91.45.95Zm30.79-3.38h31.38v31.38h-31.38z" style="fill:#263238"/><path d="M269.23 257.28a7.65 7.65 0 0 0 .34.89 7.9 7.9 0 0 0 1.72 2.11 41.76 41.76 0 0 0 8.45 5.55c1.89 1 4 2.06 6.27 3.14l3.54 1.65a25.33 25.33 0 0 1 3.7 1.95 13.54 13.54 0 0 1 5.61 6.91 11.53 11.53 0 0 1-8.73 14.94 14.59 14.59 0 0 1-8.82-1.32 24.48 24.48 0 0 1-6.59-4.71c-1.84-1.76-3.38-3.54-4.79-5.16-2.85-3.2-5.3-5.67-6.91-7.45-.81-.88-1.44-1.58-1.85-2.06l-.46-.55a.94.94 0 0 1-.14-.2s.07 0 .18.16l.5.52 1.92 2c1.66 1.74 4.14 4.16 7 7.35 1.44 1.6 3 3.36 4.81 5.09a24.37 24.37 0 0 0 6.5 4.58 14.16 14.16 0 0 0 8.52 1.26 11 11 0 0 0 8.34-14.28A13 13 0 0 0 293 273a24.75 24.75 0 0 0-3.62-1.93l-3.54-1.68c-2.27-1.1-4.37-2.17-6.26-3.2a40 40 0 0 1-8.41-5.73 7.59 7.59 0 0 1-1.68-2.22 2.8 2.8 0 0 1-.21-.69.74.74 0 0 1-.05-.27Z" style="fill:#455a64"/><path d="M281.67 257.28a3.58 3.58 0 0 1-.32.93 11.17 11.17 0 0 1-1.36 2.33 14.11 14.11 0 0 1-7.33 4.89 13.3 13.3 0 0 1-4.92.17 19.84 19.84 0 0 1-3.88-1 16.3 16.3 0 0 1-2.46-1.08 3 3 0 0 1-.83-.53c0-.08 1.27.6 3.41 1.26a22.15 22.15 0 0 0 3.82.83 13.63 13.63 0 0 0 4.73-.21 14.51 14.51 0 0 0 7.17-4.61 30.15 30.15 0 0 0 1.97-2.98Z" style="fill:#455a64"/><path d="M272.49 271.53h-1c-3.93-.2-7.93-1.81-11.33-3.36l.83-1.82c3.23 1.47 7 3 10.6 3.19a14.42 14.42 0 0 0 9.86-2.88 9.59 9.59 0 0 0 3.55-9l2-.4a11.48 11.48 0 0 1-4.25 10.93 16.12 16.12 0 0 1-10.26 3.34Z" style="fill:#455a64"/><path d="M275.06 257.28a3.84 3.84 0 0 1-.44.72 8.5 8.5 0 0 1-1.74 1.71 37.53 37.53 0 0 1-3.26 2 14.33 14.33 0 0 0-3.86 3.16 7.94 7.94 0 0 0-1.45 2.48 4.76 4.76 0 0 0-.08 3c.62 2.06 2.85 3.49 5.21 3.82s5-.43 7.52-1.26 5.38-1.72 8.33-1.16a7.1 7.1 0 0 1 3.8 2.1 4.86 4.86 0 0 1 1.37 4 6.15 6.15 0 0 1-2 3.56 13.16 13.16 0 0 1-3.21 2.17 27.71 27.71 0 0 1-12.91 2.7 29.37 29.37 0 0 1-8.78-1.52 22.81 22.81 0 0 1-2.26-.91 7 7 0 0 1-.75-.38 4.44 4.44 0 0 1 .79.28c.51.22 1.28.49 2.28.81a30.45 30.45 0 0 0 8.73 1.36 27.83 27.83 0 0 0 12.68-2.77 12.54 12.54 0 0 0 3.08-2.1 5.64 5.64 0 0 0 1.83-3.27 4.35 4.35 0 0 0-1.25-3.56 6.68 6.68 0 0 0-3.52-1.94c-2.77-.53-5.52.34-8.07 1.14s-5.18 1.59-7.75 1.24a7.8 7.8 0 0 1-3.45-1.36 5.42 5.42 0 0 1-2.1-2.8 5.2 5.2 0 0 1 .11-3.27 8.27 8.27 0 0 1 1.54-2.58 14.7 14.7 0 0 1 4-3.18c1.31-.74 2.44-1.33 3.29-1.94a10.11 10.11 0 0 0 2.32-2.25Z" style="fill:#455a64"/><path d="M305.72 269a7 7 0 0 1-1.34.48 19.76 19.76 0 0 1-3.81.72 26.82 26.82 0 0 1-12.57-2 35.75 35.75 0 0 1-10.65-7 39.158 39.158 0 0 1-2.69-2.78 7.1 7.1 0 0 1-.88-1.12 9.08 9.08 0 0 1 1 1c.64.65 1.57 1.57 2.79 2.65a38.06 38.06 0 0 0 10.6 6.82 27.86 27.86 0 0 0 12.34 2.12 39.76 39.76 0 0 0 5.21-.89Z" style="fill:#455a64"/><path d="M310.77 265a7.15 7.15 0 0 1-4.72 3.72c-.06-.14 1.17-.72 2.45-1.75s2.15-2.09 2.27-1.97Zm1.85 5.55a23 23 0 0 0-3.25-1.33 20.76 20.76 0 0 0-3.49-.29 5 5 0 0 1 3.61-.22 5.13 5.13 0 0 1 3.13 1.84Z" style="fill:#e79703"/><path d="M308.84 274.24c-.07 0 .14-.39.21-1a3.48 3.48 0 0 0-.59-2.25 5.92 5.92 0 0 0-1.79-1.61c-.54-.34-.9-.53-.88-.6s.44 0 1 .27a4.89 4.89 0 0 1 2.05 1.65 3.31 3.31 0 0 1 .52 2.6c-.13.7-.48.98-.52.94Z" style="fill:#e79703"/></svg>