<svg xmlns="http://www.w3.org/2000/svg" viewBox="0 0 16 16" fill="#ffffff" id="List-Bold--Streamline-Phosphor" height="16" width="16">
  <desc>
    List Bold Streamline Icon: https://streamlinehq.com
  </desc>
  <path d="M15.84 8c0 0.519575 -0.421225 0.940775 -0.9408 0.9408H1.1008c-0.72423125 -0.00003125 -1.176875 -0.78405 -0.8147375 -1.4112375 0.1680625 -0.2910625 0.4786375 -0.4703625 0.8147375 -0.4703625h13.7984c0.519575 0.000025 0.9408 0.421225 0.9408 0.9408ZM1.1008 3.9232h13.7984c0.72423125 0 1.17686875 -0.784 0.81475625 -1.4112 -0.16805 -0.29106875 -0.47865625 -0.4703875 -0.81475625 -0.4704H1.1008c-0.72423125 0.00003125 -1.176875 0.78405 -0.8147375 1.4112375 0.1680625 0.2910625 0.4786375 0.4703625 0.8147375 0.4703625Zm13.7984 8.1536H1.1008c-0.72423125 0.00003125 -1.176875 0.78405 -0.8147375 1.4112375 0.1680625 0.2910625 0.4786375 0.4703625 0.8147375 0.4703625h13.7984c0.72423125 0 1.17686875 -0.784 0.81475625 -1.4112 -0.16805 -0.29106875 -0.47865625 -0.4703875 -0.81475625 -0.4704Z" stroke-width="0.0625"></path>
</svg>